<?xml version="1.0" encoding="UTF-8" standalone="no"?> <!-- Created with Vectornator for iOS (http://vectornator.io/) --><!DOCTYPE svg PUBLIC "-//W3C//DTD SVG 1.1//EN" "http://www.w3.org/Graphics/SVG/1.1/DTD/svg11.dtd">
<svg height="100%" style="fill-rule:nonzero;clip-rule:evenodd;stroke-linecap:round;stroke-linejoin:round;" xmlns:xlink="http://www.w3.org/1999/xlink" xmlns="http://www.w3.org/2000/svg" xml:space="preserve" width="100%" xmlns:vectornator="http://vectornator.io" version="1.1" viewBox="0 0 841.995 595.35">
<metadata>
<vectornator:setting key="DimensionsVisible" value="1"/>
<vectornator:setting key="PencilOnly" value="0"/>
<vectornator:setting key="SnapToPoints" value="0"/>
<vectornator:setting key="OutlineMode" value="0"/>
<vectornator:setting key="CMYKEnabledKey" value="0"/>
<vectornator:setting key="RulersVisible" value="1"/>
<vectornator:setting key="SnapToEdges" value="0"/>
<vectornator:setting key="GuidesVisible" value="1"/>
<vectornator:setting key="DisplayWhiteBackground" value="0"/>
<vectornator:setting key="doHistoryDisabled" value="0"/>
<vectornator:setting key="SnapToGuides" value="1"/>
<vectornator:setting key="TimeLapseWatermarkDisabled" value="0"/>
<vectornator:setting key="Units" value="Millimeters"/>
<vectornator:setting key="DynamicGuides" value="0"/>
<vectornator:setting key="IsolateActiveLayer" value="0"/>
<vectornator:setting key="SnapToGrid" value="0"/>
</metadata>
<defs/>
<g id="Layer 1" vectornator:layerName="Layer 1">
<path d="M216.932+195.948C216.932+100.717+294.131+23.5181+389.361+23.5181C484.591+23.5181+561.791+100.717+561.791+195.948C561.791+291.178+484.591+368.377+389.361+368.377C294.131+368.377+216.932+291.178+216.932+195.948Z" opacity="1" fill="#ffffff"/>
<path stroke="#040404" stroke-width="1.16" d="M249.285+215.008C249.285+149.983+309.321+97.2702+383.38+97.2702C457.438+97.2702+517.475+149.983+517.475+215.008C517.475+280.032+457.438+332.745+383.38+332.745C309.321+332.745+249.285+280.032+249.285+215.008Z" fill="#000000" stroke-linecap="round" opacity="1" stroke-linejoin="round"/>
<path stroke="#040404" stroke-width="1.16" d="M247.96+140.073L281.784+145.598L260.445+174.495L247.96+140.073Z" fill="#000000" stroke-linecap="round" opacity="1" stroke-linejoin="round"/>
<path stroke="#040404" stroke-width="1.16" d="M231.561+226.301C231.561+207.012+248.977+191.376+270.46+191.376C291.944+191.376+309.359+207.012+309.359+226.301C309.359+245.589+291.944+261.226+270.46+261.226C248.977+261.226+231.561+245.589+231.561+226.301Z" fill="#000000" stroke-linecap="round" opacity="1" stroke-linejoin="round"/>
<path stroke="#040404" stroke-width="3" d="M505.282+192.034C513.568+187.992+530.039+182.726+537.049+194.247C539.991+200.473+534.775+211.705+525.783+206.735C521.359+200.807+524.511+193.464+526.1+187.181C531.077+180.843+539.497+179.727+547.161+179.41C544.892+181.077+537.395+180.194+534.028+181.77C531.479+183.153+529.198+184.837+526.984+186.75C521.626+193.986+523.11+214.989+536.083+204.247C540.355+196.588+533.737+190.314+526.713+187.18C519.111+187.059+512.564+190.486+505.282+192.034L505.282+192.034Z" fill="none" stroke-linecap="round" opacity="1" stroke-linejoin="round"/>
<path stroke="#040404" stroke-width="1.16" d="M294.036+303.027L333.612+303.027L333.612+328.95L294.036+328.95L294.036+303.027Z" fill="#000000" stroke-linecap="round" opacity="1" stroke-linejoin="round"/>
<path stroke="#040404" stroke-width="1.16" d="M292.49+334.392C292.49+327.008+301.987+321.022+313.703+321.022C325.418+321.022+334.916+327.008+334.916+334.392C334.916+341.776+325.418+347.762+313.703+347.762C301.987+347.762+292.49+341.776+292.49+334.392Z" fill="#000000" stroke-linecap="round" opacity="1" stroke-linejoin="round"/>
<path stroke="#040404" stroke-width="1.16" d="M336.317+345.852C336.317+337.56+347.163+330.839+360.541+330.839C373.92+330.839+384.765+337.56+384.765+345.852C384.765+354.143+373.92+360.865+360.541+360.865C347.163+360.865+336.317+354.143+336.317+345.852Z" fill="#000000" stroke-linecap="round" opacity="1" stroke-linejoin="round"/>
<path stroke="#040404" stroke-width="1.16" d="M336.297+331.403L384.642+331.403L384.642+346.729L336.297+346.729L336.297+331.403Z" fill="#000000" stroke-linecap="round" opacity="1" stroke-linejoin="round"/>
<path stroke="#040404" stroke-width="1.16" d="M443.612+285.628L453.457+285.628C464.698+285.628+473.81+302.424+473.81+323.144L473.81+323.144C473.81+343.863+464.698+360.659+453.457+360.659L443.612+360.659C432.371+360.659+423.259+343.863+423.259+323.144L423.259+323.144C423.259+302.424+432.371+285.628+443.612+285.628Z" fill="#000000" stroke-linecap="round" opacity="1" stroke-linejoin="round"/>
<path stroke="#040404" stroke-width="1.16" d="M418.614+320.988L427.437+320.988C434.357+320.988+439.966+326.598+439.966+333.517L439.966+333.517C439.966+340.437+434.357+346.046+427.437+346.046L418.614+346.046C411.694+346.046+406.085+340.437+406.085+333.517L406.085+333.517C406.085+326.598+411.694+320.988+418.614+320.988Z" fill="#000000" stroke-linecap="round" opacity="1" stroke-linejoin="round"/>
<path stroke="#040404" stroke-width="1.16" d="M352.076+317.49L369.05+317.49C378.66+317.49+386.45+327.204+386.45+339.186L386.45+339.186C386.45+351.168+378.66+360.881+369.05+360.881L352.076+360.881C342.466+360.881+334.675+351.168+334.675+339.186L334.675+339.186C334.675+327.204+342.466+317.49+352.076+317.49Z" fill="#000000" stroke-linecap="round" opacity="1" stroke-linejoin="round"/>
</g>
</svg>
