<?xml version="1.0" encoding="UTF-8" standalone="no"?> <!-- Created with Vectornator for iOS (http://vectornator.io/) --><!DOCTYPE svg PUBLIC "-//W3C//DTD SVG 1.1//EN" "http://www.w3.org/Graphics/SVG/1.1/DTD/svg11.dtd">
<svg height="100%" style="fill-rule:nonzero;clip-rule:evenodd;stroke-linecap:round;stroke-linejoin:round;" xmlns:xlink="http://www.w3.org/1999/xlink" xmlns="http://www.w3.org/2000/svg" xml:space="preserve" width="100%" xmlns:vectornator="http://vectornator.io" version="1.1" viewBox="0 0 841.995 595.35">
<metadata>
<vectornator:setting key="DimensionsVisible" value="1"/>
<vectornator:setting key="PencilOnly" value="0"/>
<vectornator:setting key="SnapToPoints" value="0"/>
<vectornator:setting key="OutlineMode" value="0"/>
<vectornator:setting key="CMYKEnabledKey" value="0"/>
<vectornator:setting key="RulersVisible" value="1"/>
<vectornator:setting key="SnapToEdges" value="0"/>
<vectornator:setting key="GuidesVisible" value="1"/>
<vectornator:setting key="DisplayWhiteBackground" value="0"/>
<vectornator:setting key="doHistoryDisabled" value="0"/>
<vectornator:setting key="SnapToGuides" value="1"/>
<vectornator:setting key="TimeLapseWatermarkDisabled" value="0"/>
<vectornator:setting key="Units" value="Millimeters"/>
<vectornator:setting key="DynamicGuides" value="0"/>
<vectornator:setting key="IsolateActiveLayer" value="0"/>
<vectornator:setting key="SnapToGrid" value="0"/>
</metadata>
<defs/>
<g id="Layer 1" vectornator:layerName="Layer 1">
<path d="M686.348+573.518C686.348+501.242+744.939+442.651+817.215+442.651C889.491+442.651+948.083+501.242+948.083+573.518C948.083+645.794+889.491+704.386+817.215+704.386C744.939+704.386+686.348+645.794+686.348+573.518Z" opacity="1" fill="none"/>
<path stroke="#040404" stroke-width="12.1035" d="M283.411+260.133C283.411+195.109+343.447+142.396+417.506+142.396C491.564+142.396+551.601+195.109+551.601+260.133C551.601+325.158+491.564+377.871+417.506+377.871C343.447+377.871+283.411+325.158+283.411+260.133Z" fill="#000000" stroke-linecap="round" opacity="1" stroke-linejoin="round"/>
<path stroke="#040404" stroke-width="2.56182" d="M275.081+179.43L308.905+184.955L287.566+213.851L275.081+179.43Z" fill="#000000" stroke-linecap="round" opacity="1" stroke-linejoin="round"/>
<path stroke="#040404" stroke-width="1.78083" d="M265.687+271.427C265.687+252.138+283.103+236.502+304.586+236.502C326.07+236.502+343.485+252.138+343.485+271.427C343.485+290.715+326.07+306.351+304.586+306.351C283.103+306.351+265.687+290.715+265.687+271.427Z" fill="#000000" stroke-linecap="round" opacity="1" stroke-linejoin="round"/>
<path stroke="#040404" stroke-width="5.80462" d="M550.57+231.705C558.857+227.575+575.327+222.196+582.338+233.966C585.28+240.326+580.064+251.799+571.072+246.723C566.647+240.667+569.799+233.166+571.389+226.747C576.366+220.273+584.786+219.133+592.45+218.809C590.181+220.512+582.683+219.61+579.317+221.22C576.767+222.633+574.486+224.353+572.273+226.308C566.914+233.699+568.399+255.155+581.372+244.181C585.644+236.358+579.026+229.947+572.002+226.746C564.4+226.623+557.852+230.124+550.57+231.705L550.57+231.705Z" fill="#000000" stroke-linecap="round" opacity="1" stroke-linejoin="round"/>
<path stroke="#040404" stroke-width="5.80462" d="M568.197+228.276C567.648+230.11+568.876+238.041+567.924+240.042C568.373+236.254+566.058+231.491+568.197+228.276L568.197+228.276Z" fill="#000000" stroke-linecap="round" opacity="1" stroke-linejoin="round"/>
<path stroke="#040404" stroke-width="5.80462" d="M588.52+220.161C590.349+217.869+598.045+220.91+588.52+220.161L588.52+220.161Z" fill="#000000" stroke-linecap="round" opacity="1" stroke-linejoin="round"/>
<path stroke="#040404" stroke-width="4.16" d="M328.147+352.161L367.724+352.161L367.724+378.084L328.147+378.084L328.147+352.161Z" fill="#000000" stroke-linecap="round" opacity="1" stroke-linejoin="round"/>
<path stroke="#040404" stroke-width="1.16" d="M326.616+379.518C326.616+372.133+336.113+366.147+347.829+366.147C359.544+366.147+369.041+372.133+369.041+379.518C369.041+386.902+359.544+392.888+347.829+392.888C336.113+392.888+326.616+386.902+326.616+379.518Z" fill="#000000" stroke-linecap="round" opacity="1" stroke-linejoin="round"/>
<path stroke="#040404" stroke-width="1.16" d="M370.443+390.978C370.443+382.686+381.288+375.965+394.667+375.965C408.046+375.965+418.891+382.686+418.891+390.978C418.891+399.269+408.046+405.99+394.667+405.99C381.288+405.99+370.443+399.269+370.443+390.978Z" fill="#000000" stroke-linecap="round" opacity="1" stroke-linejoin="round"/>
<path stroke="#040404" stroke-width="1.16" d="M370.423+376.528L418.768+376.528L418.768+391.855L370.423+391.855L370.423+376.528Z" fill="#000000" stroke-linecap="round" opacity="1" stroke-linejoin="round"/>
<path stroke="#040404" stroke-width="1.16" d="M477.738+330.754L487.583+330.754C498.824+330.754+507.936+347.55+507.936+368.269L507.936+368.269C507.936+388.989+498.824+405.785+487.583+405.785L477.738+405.785C466.497+405.785+457.385+388.989+457.385+368.269L457.385+368.269C457.385+347.55+466.497+330.754+477.738+330.754Z" fill="#000000" stroke-linecap="round" opacity="1" stroke-linejoin="round"/>
<path stroke="#040404" stroke-width="1.16" d="M452.74+366.114L461.563+366.114C468.483+366.114+474.092+371.723+474.092+378.643L474.092+378.643C474.092+385.562+468.483+391.172+461.563+391.172L452.74+391.172C445.82+391.172+440.211+385.562+440.211+378.643L440.211+378.643C440.211+371.723+445.82+366.114+452.74+366.114Z" fill="#000000" stroke-linecap="round" opacity="1" stroke-linejoin="round"/>
<path stroke="#040404" stroke-width="1.16" d="M386.202+362.616L403.175+362.616C412.786+362.616+420.576+372.329+420.576+384.311L420.576+384.311C420.576+396.293+412.786+406.007+403.175+406.007L386.202+406.007C376.592+406.007+368.801+396.293+368.801+384.311L368.801+384.311C368.801+372.329+376.592+362.616+386.202+362.616Z" fill="#000000" stroke-linecap="round" opacity="1" stroke-linejoin="round"/>
</g>
</svg>
